<?xml version="1.0" standalone="no"?>
<!DOCTYPE svg PUBLIC "-//W3C//DTD SVG 20010904//EN"
 "http://www.w3.org/TR/2001/REC-SVG-20010904/DTD/svg10.dtd">
<svg version="1.0" xmlns="http://www.w3.org/2000/svg"
 width="235.000000pt" height="235.000000pt" viewBox="0 0 235.000000 235.000000"
 preserveAspectRatio="xMidYMid meet">
<metadata>
Created by potrace 1.14, written by Peter Selinger 2001-2017
</metadata>
<g transform="translate(0.000000,235.000000) scale(0.100000,-0.100000)"
fill="#000000" stroke="none">
<path d="M1125 2068 c-52 -12 -134 -36 -160 -47 -11 -5 -40 -18 -65 -29 -117
-51 -239 -59 -325 -21 -33 15 -41 22 -72 62 l-22 28 0 -38 c0 -21 -1 -53 -3
-70 -2 -18 -1 -33 4 -33 4 0 5 -7 1 -16 -8 -20 72 -95 93 -87 8 3 14 0 14 -6
0 -6 -6 -11 -14 -11 -35 0 -275 -241 -276 -277 0 -6 -3 -13 -7 -15 -11 -4 -38
-61 -64 -133 -17 -45 -22 -82 -22 -145 0 -97 4 -129 15 -131 29 -6 33 -1 34
36 1 61 12 107 33 139 l19 29 1 -67 c0 -37 2 -70 5 -75 3 -4 8 -28 11 -53 5
-35 2 -55 -14 -86 -20 -39 -23 -48 -39 -127 -8 -38 -7 -181 1 -215 2 -8 9 -28
15 -43 7 -16 12 -33 12 -38 0 -5 9 -26 20 -46 11 -21 20 -45 20 -54 0 -19 96
-148 115 -156 19 -7 37 6 28 20 -12 19 -16 61 -14 132 1 42 19 79 27 58 3 -6
14 -21 25 -34 10 -12 19 -26 19 -31 0 -4 5 -8 12 -8 6 0 19 -7 29 -16 28 -25
38 -10 27 42 -12 53 -5 65 19 37 94 -104 339 -156 538 -112 50 10 109 25 133
33 l42 15 1 -32 c2 -49 8 -99 15 -127 4 -14 8 -31 10 -39 3 -13 22 -31 35 -31
7 0 29 47 29 64 0 22 77 94 191 179 l38 28 9 -33 c12 -47 38 -48 51 -3 11 40
68 135 81 135 5 0 11 -8 15 -19 9 -30 52 -71 86 -83 38 -13 44 -7 27 29 -8 15
-14 33 -13 38 6 54 23 84 79 139 79 79 97 105 131 193 23 59 27 82 22 123 -6
48 -2 56 26 51 4 -1 24 6 44 14 52 22 94 74 61 76 -85 5 -141 76 -145 184 -5
132 -13 195 -33 246 -12 30 -27 59 -33 64 -7 6 -24 26 -37 45 -30 42 -54 64
-100 90 -52 30 -72 43 -94 63 -12 10 -37 27 -57 37 -20 11 -49 30 -65 42 -28
23 -148 89 -159 88 -3 0 -7 1 -10 1 -3 1 -8 2 -12 3 -5 1 -32 6 -60 10 -29 4
-55 11 -58 16 -6 10 -241 9 -290 -2z"/>
</g>
</svg>
